<svg width="438" height="246" viewBox="0 0 438 246" fill="none" xmlns="http://www.w3.org/2000/svg">
<path d="M38.3978 92.8616C28.2858 92.8616 19.9338 89.5016 13.3418 82.7816C6.74977 76.0616 3.45377 67.7736 3.45377 57.9176C3.45377 47.9976 6.74977 39.7096 13.3418 33.0536C19.9338 26.3336 28.2858 22.9736 38.3978 22.9736C44.4778 22.9736 50.0778 24.4136 55.1978 27.2936C60.3818 30.1096 64.4138 33.9496 67.2938 38.8136L55.8698 45.4376C54.2058 42.4296 51.8378 40.0936 48.7658 38.4296C45.6938 36.7016 42.2378 35.8376 38.3978 35.8376C31.8698 35.8376 26.5898 37.8856 22.5578 41.9816C18.5898 46.0776 16.6058 51.3896 16.6058 57.9176C16.6058 64.3816 18.5898 69.6616 22.5578 73.7576C26.5898 77.8536 31.8698 79.9016 38.3978 79.9016C42.2378 79.9016 45.6938 79.0696 48.7658 77.4056C51.9018 75.6776 54.2698 73.3416 55.8698 70.3976L67.2938 77.0216C64.4138 81.8856 60.4138 85.7576 55.2938 88.6376C50.1738 91.4536 44.5418 92.8616 38.3978 92.8616ZM116.033 85.5656C111.105 90.4296 105.089 92.8616 97.9853 92.8616C90.8813 92.8616 84.8653 90.4296 79.9373 85.5656C75.0733 80.6376 72.6413 74.6216 72.6413 67.5176C72.6413 60.4136 75.0733 54.4296 79.9373 49.5656C84.8653 44.6376 90.8813 42.1736 97.9853 42.1736C105.089 42.1736 111.105 44.6376 116.033 49.5656C120.961 54.4296 123.425 60.4136 123.425 67.5176C123.425 74.6216 120.961 80.6376 116.033 85.5656ZM88.6733 77.0216C91.1693 79.5176 94.2733 80.7656 97.9853 80.7656C101.697 80.7656 104.801 79.5176 107.297 77.0216C109.793 74.5256 111.041 71.3576 111.041 67.5176C111.041 63.6776 109.793 60.5096 107.297 58.0136C104.801 55.5176 101.697 54.2696 97.9853 54.2696C94.2733 54.2696 91.1693 55.5176 88.6733 58.0136C86.2413 60.5096 85.0253 63.6776 85.0253 67.5176C85.0253 71.3576 86.2413 74.5256 88.6733 77.0216ZM173.033 85.5656C168.105 90.4296 162.089 92.8616 154.985 92.8616C147.881 92.8616 141.865 90.4296 136.937 85.5656C132.073 80.6376 129.641 74.6216 129.641 67.5176C129.641 60.4136 132.073 54.4296 136.937 49.5656C141.865 44.6376 147.881 42.1736 154.985 42.1736C162.089 42.1736 168.105 44.6376 173.033 49.5656C177.961 54.4296 180.425 60.4136 180.425 67.5176C180.425 74.6216 177.961 80.6376 173.033 85.5656ZM145.673 77.0216C148.169 79.5176 151.273 80.7656 154.985 80.7656C158.697 80.7656 161.801 79.5176 164.297 77.0216C166.793 74.5256 168.041 71.3576 168.041 67.5176C168.041 63.6776 166.793 60.5096 164.297 58.0136C161.801 55.5176 158.697 54.2696 154.985 54.2696C151.273 54.2696 148.169 55.5176 145.673 58.0136C143.241 60.5096 142.025 63.6776 142.025 67.5176C142.025 71.3576 143.241 74.5256 145.673 77.0216ZM233.393 91.5176H218.993L201.521 69.7256V91.5176H189.137V24.3176H201.521V64.6376L218.033 43.5176H232.817L213.521 67.2296L233.393 91.5176ZM255.895 78.2696L248.695 104.958H238.615L242.455 78.2696H255.895ZM300.758 72.6056C302.422 78.6216 306.934 81.6296 314.294 81.6296C319.03 81.6296 322.614 80.0296 325.046 76.8296L335.03 82.5896C330.294 89.4376 323.318 92.8616 314.102 92.8616C306.166 92.8616 299.798 90.4616 294.998 85.6616C290.198 80.8616 287.798 74.8136 287.798 67.5176C287.798 60.2856 290.166 54.2696 294.902 49.4696C299.638 44.6056 305.718 42.1736 313.142 42.1736C320.182 42.1736 325.974 44.6056 330.518 49.4696C335.126 54.3336 337.43 60.3496 337.43 67.5176C337.43 69.1176 337.27 70.8136 336.95 72.6056H300.758ZM300.566 63.0056H325.046C324.342 59.7416 322.87 57.3096 320.63 55.7096C318.454 54.1096 315.958 53.3096 313.142 53.3096C309.814 53.3096 307.062 54.1736 304.886 55.9016C302.71 57.5656 301.27 59.9336 300.566 63.0056ZM382.18 43.5176H394.564V91.5176H382.18V85.8536C378.468 90.5256 373.252 92.8616 366.532 92.8616C360.132 92.8616 354.628 90.4296 350.02 85.5656C345.476 80.6376 343.204 74.6216 343.204 67.5176C343.204 60.4136 345.476 54.4296 350.02 49.5656C354.628 44.6376 360.132 42.1736 366.532 42.1736C373.252 42.1736 378.468 44.5096 382.18 49.1816V43.5176ZM359.332 77.3096C361.828 79.8056 364.996 81.0536 368.836 81.0536C372.676 81.0536 375.844 79.8056 378.34 77.3096C380.9 74.7496 382.18 71.4856 382.18 67.5176C382.18 63.5496 380.9 60.3176 378.34 57.8216C375.844 55.2616 372.676 53.9816 368.836 53.9816C364.996 53.9816 361.828 55.2616 359.332 57.8216C356.836 60.3176 355.588 63.5496 355.588 67.5176C355.588 71.4856 356.836 74.7496 359.332 77.3096ZM433.25 55.4216H422.402V75.3896C422.402 77.0536 422.818 78.2696 423.65 79.0376C424.482 79.8056 425.698 80.2536 427.298 80.3816C428.898 80.4456 430.882 80.4136 433.25 80.2856V91.5176C424.738 92.4776 418.722 91.6776 415.202 89.1176C411.746 86.5576 410.018 81.9816 410.018 75.3896V55.4216H401.666V43.5176H410.018V33.8216L422.402 30.0776V43.5176H433.25V55.4216Z" fill="black"/>
<path d="M178.398 222.344C168.286 222.344 159.934 218.984 153.342 212.264C146.75 205.544 143.454 197.256 143.454 187.4C143.454 177.48 146.75 169.192 153.342 162.536C159.934 155.816 168.286 152.456 178.398 152.456C184.478 152.456 190.078 153.896 195.198 156.776C200.382 159.592 204.414 163.432 207.294 168.296L195.87 174.92C194.206 171.912 191.838 169.576 188.766 167.912C185.694 166.184 182.238 165.32 178.398 165.32C171.87 165.32 166.59 167.368 162.558 171.464C158.59 175.56 156.606 180.872 156.606 187.4C156.606 193.864 158.59 199.144 162.558 203.24C166.59 207.336 171.87 209.384 178.398 209.384C182.238 209.384 185.694 208.552 188.766 206.888C191.902 205.16 194.27 202.824 195.87 199.88L207.294 206.504C204.414 211.368 200.414 215.24 195.294 218.12C190.174 220.936 184.542 222.344 178.398 222.344ZM256.033 215.048C251.105 219.912 245.089 222.344 237.985 222.344C230.881 222.344 224.865 219.912 219.937 215.048C215.073 210.12 212.641 204.104 212.641 197C212.641 189.896 215.073 183.912 219.937 179.048C224.865 174.12 230.881 171.656 237.985 171.656C245.089 171.656 251.105 174.12 256.033 179.048C260.961 183.912 263.425 189.896 263.425 197C263.425 204.104 260.961 210.12 256.033 215.048ZM228.673 206.504C231.169 209 234.273 210.248 237.985 210.248C241.697 210.248 244.801 209 247.297 206.504C249.793 204.008 251.041 200.84 251.041 197C251.041 193.16 249.793 189.992 247.297 187.496C244.801 185 241.697 183.752 237.985 183.752C234.273 183.752 231.169 185 228.673 187.496C226.241 189.992 225.025 193.16 225.025 197C225.025 200.84 226.241 204.008 228.673 206.504ZM313.033 215.048C308.105 219.912 302.089 222.344 294.985 222.344C287.881 222.344 281.865 219.912 276.937 215.048C272.073 210.12 269.641 204.104 269.641 197C269.641 189.896 272.073 183.912 276.937 179.048C281.865 174.12 287.881 171.656 294.985 171.656C302.089 171.656 308.105 174.12 313.033 179.048C317.961 183.912 320.425 189.896 320.425 197C320.425 204.104 317.961 210.12 313.033 215.048ZM285.673 206.504C288.169 209 291.273 210.248 294.985 210.248C298.697 210.248 301.801 209 304.297 206.504C306.793 204.008 308.041 200.84 308.041 197C308.041 193.16 306.793 189.992 304.297 187.496C301.801 185 298.697 183.752 294.985 183.752C291.273 183.752 288.169 185 285.673 187.496C283.241 189.992 282.025 193.16 282.025 197C282.025 200.84 283.241 204.008 285.673 206.504ZM373.393 221H358.993L341.521 199.208V221H329.137V153.8H341.521V194.12L358.033 173H372.817L353.521 196.712L373.393 221ZM380.151 153.8H393.399V221H380.151V153.8ZM432.718 184.904H421.87V204.872C421.87 206.536 422.286 207.752 423.118 208.52C423.95 209.288 425.166 209.736 426.766 209.864C428.366 209.928 430.35 209.896 432.718 209.768V221C424.206 221.96 418.19 221.16 414.67 218.6C411.214 216.04 409.486 211.464 409.486 204.872V184.904H401.134V173H409.486V163.304L421.87 159.56V173H432.718V184.904Z" fill="black"/>
<path d="M120.154 130.01L146.769 156.304C144.551 158.284 142.421 159.403 139.779 163.245L110.91 140.71C112.671 134.993 114.842 132.798 120.154 130.01Z" fill="#A586E2"/>
<path d="M102.638 157.422L136.07 169.667C134.83 172.779 134.026 174.624 133.488 178.798L98.7187 171.009C97.9261 165.08 98.9791 162.177 102.638 157.422Z" fill="#A586E2"/>
<path d="M97.8949 186.113L133.262 186.461C133.316 191.424 134.179 194.242 134.689 196.354L98.7275 200.229C96.0043 194.903 96.0297 191.815 97.8949 186.113Z" fill="#A586E2"/>
</svg>
