<svg width="1485" height="71" viewBox="0 0 1485 71" fill="none" xmlns="http://www.w3.org/2000/svg">
<path d="M1484.69 28.8848C1482.04 29.0706 1479.85 30.0579 1478.1 31.8506C1476.16 33.8505 1475.18 36.3445 1475.18 39.3311C1475.18 42.3707 1476.17 44.8774 1478.14 46.8506C1479.87 48.581 1482.06 49.5526 1484.69 49.7656V70.6611H0V0H1484.69V28.8848ZM22.7754 28.8506C19.7621 28.8506 17.2549 29.864 15.2549 31.8906C13.255 33.8906 12.2549 36.3712 12.2549 39.3311C12.255 42.2907 13.2551 44.784 15.2549 46.8105C17.2549 48.8105 19.7621 49.8105 22.7754 49.8105C24.722 49.8105 26.4957 49.3435 28.0957 48.4102C29.6955 47.4769 30.9088 46.2102 31.7354 44.6104L29.5352 43.3311C28.8685 44.5309 27.9486 45.491 26.7754 46.2109C25.6021 46.9042 24.2687 47.251 22.7754 47.251C20.5621 47.251 18.6948 46.4907 17.1748 44.9707C15.655 43.4242 14.8956 41.5441 14.8955 39.3311C14.8955 37.1178 15.6549 35.2504 17.1748 33.7305C18.6948 32.1838 20.5621 31.4102 22.7754 31.4102C24.2686 31.4102 25.6021 31.7703 26.7754 32.4902C27.9754 33.1836 28.8417 34.1311 29.375 35.3311L31.5352 34.0908C30.8152 32.491 29.6688 31.2243 28.0957 30.291C26.5224 29.331 24.7487 28.8506 22.7754 28.8506ZM44.6504 28.8506C41.7171 28.8506 39.2233 29.864 37.1699 31.8906C35.1434 33.8906 34.1299 36.3711 34.1299 39.3311C34.13 42.2908 35.1435 44.784 37.1699 46.8105C39.2233 48.8105 41.7171 49.8105 44.6504 49.8105C47.5836 49.8105 50.0632 48.8104 52.0898 46.8105C54.1431 44.784 55.1698 42.2909 55.1699 39.3311C55.1699 36.3711 54.1432 33.8906 52.0898 31.8906C50.0632 29.8641 47.5836 28.8506 44.6504 28.8506ZM68.9082 28.8506C65.9749 28.8506 63.4811 29.864 61.4277 31.8906C59.4012 33.8906 58.3877 36.3711 58.3877 39.3311C58.3878 42.2908 59.4013 44.784 61.4277 46.8105C63.4811 48.8105 65.9749 49.8105 68.9082 49.8105C71.8414 49.8105 74.3211 48.8104 76.3477 46.8105C78.4009 44.784 79.4276 42.2909 79.4277 39.3311C79.4277 36.3711 78.401 33.8906 76.3477 31.8906C74.3211 29.8641 71.8414 28.8506 68.9082 28.8506ZM156.174 28.8506C153.16 28.8506 150.653 29.864 148.653 31.8906C146.653 33.8906 145.653 36.3712 145.653 39.3311C145.653 42.2907 146.654 44.784 148.653 46.8105C150.653 48.8105 153.16 49.8105 156.174 49.8105C158.12 49.8105 159.894 49.3435 161.494 48.4102C163.094 47.4769 164.307 46.2102 165.134 44.6104L162.934 43.3311C162.267 44.5309 161.347 45.491 160.174 46.2109C159.001 46.9042 157.667 47.251 156.174 47.251C153.96 47.251 152.093 46.4907 150.573 44.9707C149.053 43.4242 148.294 41.5441 148.294 39.3311C148.294 37.1178 149.053 35.2504 150.573 33.7305C152.093 32.1838 153.96 31.4102 156.174 31.4102C157.667 31.4102 159.001 31.7703 160.174 32.4902C161.374 33.1836 162.24 34.1311 162.773 35.3311L164.934 34.0908C164.214 32.491 163.067 31.2243 161.494 30.291C159.921 29.331 158.147 28.8506 156.174 28.8506ZM178.049 28.8506C175.115 28.8506 172.622 29.864 170.568 31.8906C168.542 33.8906 167.528 36.3711 167.528 39.3311C167.528 42.2908 168.542 44.784 170.568 46.8105C172.622 48.8105 175.115 49.8105 178.049 49.8105C180.982 49.8105 183.462 48.8104 185.488 46.8105C187.542 44.784 188.568 42.2909 188.568 39.3311C188.568 36.3711 187.542 33.8906 185.488 31.8906C183.462 29.8641 180.982 28.8506 178.049 28.8506ZM202.307 28.8506C199.373 28.8506 196.88 29.864 194.826 31.8906C192.8 33.8906 191.786 36.3711 191.786 39.3311C191.786 42.2908 192.8 44.784 194.826 46.8105C196.88 48.8105 199.373 49.8105 202.307 49.8105C205.24 49.8105 207.719 48.8104 209.746 46.8105C211.799 44.784 212.826 42.2909 212.826 39.3311C212.826 36.3711 211.799 33.8906 209.746 31.8906C207.719 29.8641 205.24 28.8506 202.307 28.8506ZM256.25 28.8506C253.183 28.8506 250.676 29.8506 248.729 31.8506C246.783 33.8505 245.81 36.3445 245.81 39.3311C245.81 42.3707 246.796 44.8774 248.77 46.8506C250.743 48.8239 253.304 49.8105 256.45 49.8105C258.397 49.8105 260.13 49.3969 261.65 48.5703C263.17 47.7437 264.37 46.624 265.25 45.2109L262.93 43.8506C262.37 44.8639 261.53 45.6911 260.41 46.3311C259.317 46.9443 258.01 47.2509 256.49 47.251C254.357 47.251 252.557 46.6636 251.09 45.4902C249.65 44.2903 248.797 42.6769 248.53 40.6504H266.09C266.143 40.1171 266.17 39.7035 266.17 39.4102C266.17 36.5571 265.25 34.0906 263.41 32.0107C261.597 29.9041 259.21 28.8506 256.25 28.8506ZM279.489 28.8506C276.636 28.8506 274.196 29.864 272.169 31.8906C270.169 33.9173 269.169 36.3978 269.169 39.3311C269.169 42.2641 270.169 44.744 272.169 46.7705C274.196 48.7972 276.636 49.8105 279.489 49.8105C283.036 49.8105 285.729 48.3435 287.569 45.4102V49.3311H290.209V29.3311H287.569V33.251C285.729 30.3176 283.036 28.8506 279.489 28.8506ZM330.119 28.8506C327.106 28.8506 324.599 29.864 322.599 31.8906C320.599 33.8906 319.599 36.3712 319.599 39.3311C319.599 42.2907 320.599 44.784 322.599 46.8105C324.599 48.8105 327.106 49.8105 330.119 49.8105C332.066 49.8105 333.839 49.3435 335.439 48.4102C337.039 47.4769 338.253 46.2102 339.079 44.6104L336.879 43.3311C336.212 44.5309 335.292 45.491 334.119 46.2109C332.946 46.9042 331.612 47.251 330.119 47.251C327.906 47.251 326.039 46.4907 324.519 44.9707C322.999 43.4242 322.239 41.5441 322.239 39.3311C322.239 37.1178 322.999 35.2504 324.519 33.7305C326.039 32.1838 327.906 31.4102 330.119 31.4102C331.612 31.4102 332.946 31.7703 334.119 32.4902C335.319 33.1836 336.185 34.1311 336.719 35.3311L338.879 34.0908C338.159 32.491 337.013 31.2243 335.439 30.291C333.866 29.331 332.092 28.8506 330.119 28.8506ZM351.994 28.8506C349.061 28.8506 346.567 29.864 344.514 31.8906C342.487 33.8906 341.474 36.3711 341.474 39.3311C341.474 42.2908 342.487 44.784 344.514 46.8105C346.567 48.8105 349.061 49.8105 351.994 49.8105C354.927 49.8105 357.407 48.8104 359.434 46.8105C361.487 44.784 362.514 42.2909 362.514 39.3311C362.514 36.3711 361.487 33.8906 359.434 31.8906C357.407 29.8641 354.927 28.8506 351.994 28.8506ZM376.252 28.8506C373.319 28.8506 370.825 29.864 368.771 31.8906C366.745 33.8906 365.731 36.3711 365.731 39.3311C365.732 42.2908 366.745 44.784 368.771 46.8105C370.825 48.8105 373.319 49.8105 376.252 49.8105C379.185 49.8105 381.665 48.8104 383.691 46.8105C385.745 44.784 386.771 42.2909 386.771 39.3311C386.771 36.3711 385.745 33.8906 383.691 31.8906C381.665 29.8641 379.185 28.8506 376.252 28.8506ZM463.518 28.8506C460.504 28.8506 457.997 29.864 455.997 31.8906C453.997 33.8906 452.997 36.3712 452.997 39.3311C452.997 42.2907 453.997 44.784 455.997 46.8105C457.997 48.8105 460.504 49.8105 463.518 49.8105C465.464 49.8105 467.238 49.3435 468.838 48.4102C470.438 47.4769 471.651 46.2102 472.478 44.6104L470.277 43.3311C469.611 44.5309 468.691 45.491 467.518 46.2109C466.344 46.9042 465.011 47.251 463.518 47.251C461.304 47.251 459.437 46.4907 457.917 44.9707C456.397 43.4242 455.638 41.5441 455.638 39.3311C455.638 37.1178 456.397 35.2504 457.917 33.7305C459.437 32.1838 461.304 31.4102 463.518 31.4102C465.011 31.4102 466.344 31.7703 467.518 32.4902C468.718 33.1836 469.584 34.1311 470.117 35.3311L472.277 34.0908C471.557 32.491 470.411 31.2243 468.838 30.291C467.265 29.331 465.491 28.8506 463.518 28.8506ZM485.393 28.8506C482.459 28.8506 479.965 29.864 477.912 31.8906C475.886 33.8906 474.872 36.3711 474.872 39.3311C474.872 42.2908 475.886 44.784 477.912 46.8105C479.965 48.8105 482.459 49.8105 485.393 49.8105C488.326 49.8105 490.805 48.8104 492.832 46.8105C494.885 44.784 495.912 42.2909 495.912 39.3311C495.912 36.3711 494.885 33.8906 492.832 31.8906C490.805 29.8641 488.326 28.8506 485.393 28.8506ZM509.65 28.8506C506.717 28.8506 504.223 29.864 502.17 31.8906C500.143 33.8906 499.13 36.3711 499.13 39.3311C499.13 42.2908 500.143 44.784 502.17 46.8105C504.223 48.8105 506.717 49.8105 509.65 49.8105C512.584 49.8105 515.063 48.8104 517.09 46.8105C519.143 44.784 520.17 42.2909 520.17 39.3311C520.17 36.3711 519.143 33.8906 517.09 31.8906C515.063 29.8641 512.584 28.8506 509.65 28.8506ZM563.594 28.8506C560.527 28.8506 558.02 29.8506 556.073 31.8506C554.127 33.8505 553.153 36.3445 553.153 39.3311C553.153 42.3707 554.14 44.8774 556.113 46.8506C558.087 48.8239 560.647 49.8105 563.794 49.8105C565.741 49.8105 567.474 49.3969 568.994 48.5703C570.514 47.7437 571.714 46.624 572.594 45.2109L570.273 43.8506C569.713 44.8639 568.874 45.6911 567.754 46.3311C566.661 46.9443 565.354 47.2509 563.834 47.251C561.701 47.251 559.9 46.6636 558.434 45.4902C556.994 44.2903 556.141 42.6769 555.874 40.6504H573.434C573.487 40.1171 573.514 39.7035 573.514 39.4102C573.514 36.5571 572.594 34.0906 570.754 32.0107C568.941 29.9041 566.554 28.8506 563.594 28.8506ZM586.833 28.8506C583.98 28.8506 581.539 29.864 579.513 31.8906C577.513 33.9173 576.513 36.3978 576.513 39.3311C576.513 42.2641 577.513 44.744 579.513 46.7705C581.539 48.7972 583.98 49.8105 586.833 49.8105C590.38 49.8105 593.073 48.3435 594.913 45.4102V49.3311H597.553V29.3311H594.913V33.251C593.073 30.3176 590.38 28.8506 586.833 28.8506ZM637.463 28.8506C634.45 28.8506 631.942 29.864 629.942 31.8906C627.943 33.8906 626.942 36.3712 626.942 39.3311C626.942 42.2907 627.943 44.784 629.942 46.8105C631.942 48.8105 634.45 49.8105 637.463 49.8105C639.41 49.8105 641.183 49.3435 642.783 48.4102C644.383 47.4769 645.596 46.2102 646.423 44.6104L644.223 43.3311C643.556 44.5309 642.636 45.491 641.463 46.2109C640.29 46.9042 638.956 47.251 637.463 47.251C635.25 47.251 633.382 46.4907 631.862 44.9707C630.343 43.4242 629.583 41.5441 629.583 39.3311C629.583 37.1178 630.342 35.2504 631.862 33.7305C633.382 32.1838 635.25 31.4102 637.463 31.4102C638.956 31.4102 640.29 31.7703 641.463 32.4902C642.663 33.1836 643.529 34.1311 644.062 35.3311L646.223 34.0908C645.503 32.491 644.356 31.2243 642.783 30.291C641.21 29.331 639.436 28.8506 637.463 28.8506ZM659.338 28.8506C656.405 28.8506 653.911 29.864 651.857 31.8906C649.831 33.8906 648.817 36.3711 648.817 39.3311C648.817 42.2908 649.831 44.784 651.857 46.8105C653.911 48.8105 656.405 49.8105 659.338 49.8105C662.271 49.8105 664.751 48.8104 666.777 46.8105C668.831 44.784 669.857 42.2909 669.857 39.3311C669.857 36.3711 668.831 33.8906 666.777 31.8906C664.751 29.8641 662.271 28.8506 659.338 28.8506ZM683.596 28.8506C680.662 28.8506 678.169 29.864 676.115 31.8906C674.089 33.8906 673.075 36.3711 673.075 39.3311C673.075 42.2908 674.089 44.784 676.115 46.8105C678.169 48.8105 680.662 49.8105 683.596 49.8105C686.529 49.8105 689.009 48.8104 691.035 46.8105C693.088 44.784 694.115 42.2909 694.115 39.3311C694.115 36.3711 693.088 33.8906 691.035 31.8906C689.009 29.8641 686.529 28.8506 683.596 28.8506ZM770.861 28.8506C767.848 28.8506 765.341 29.864 763.341 31.8906C761.341 33.8906 760.341 36.3712 760.341 39.3311C760.341 42.2907 761.341 44.784 763.341 46.8105C765.341 48.8105 767.848 49.8105 770.861 49.8105C772.808 49.8105 774.582 49.3435 776.182 48.4102C777.781 47.4769 778.995 46.2102 779.821 44.6104L777.621 43.3311C776.954 44.5309 776.035 45.491 774.861 46.2109C773.688 46.9042 772.355 47.251 770.861 47.251C768.648 47.251 766.781 46.4907 765.261 44.9707C763.741 43.4242 762.982 41.5441 762.981 39.3311C762.981 37.1178 763.741 35.2504 765.261 33.7305C766.781 32.1838 768.648 31.4102 770.861 31.4102C772.355 31.4102 773.688 31.7703 774.861 32.4902C776.061 33.1836 776.928 34.1311 777.461 35.3311L779.621 34.0908C778.901 32.491 777.755 31.2243 776.182 30.291C774.608 29.331 772.835 28.8506 770.861 28.8506ZM792.736 28.8506C789.803 28.8506 787.309 29.864 785.256 31.8906C783.229 33.8906 782.216 36.3711 782.216 39.3311C782.216 42.2908 783.229 44.784 785.256 46.8105C787.309 48.8105 789.803 49.8105 792.736 49.8105C795.67 49.8105 798.149 48.8104 800.176 46.8105C802.229 44.784 803.256 42.2909 803.256 39.3311C803.256 36.3711 802.229 33.8906 800.176 31.8906C798.149 29.8641 795.67 28.8506 792.736 28.8506ZM816.994 28.8506C814.061 28.8506 811.567 29.864 809.514 31.8906C807.487 33.8906 806.474 36.3711 806.474 39.3311C806.474 42.2908 807.487 44.784 809.514 46.8105C811.567 48.8105 814.061 49.8105 816.994 49.8105C819.927 49.8105 822.407 48.8104 824.434 46.8105C826.487 44.784 827.514 42.2909 827.514 39.3311C827.514 36.3711 826.487 33.8906 824.434 31.8906C822.407 29.8641 819.927 28.8506 816.994 28.8506ZM870.938 28.8506C867.871 28.8506 865.364 29.8506 863.417 31.8506C861.47 33.8505 860.497 36.3445 860.497 39.3311C860.497 42.3707 861.484 44.8774 863.457 46.8506C865.43 48.8239 867.991 49.8105 871.138 49.8105C873.084 49.8105 874.818 49.3969 876.338 48.5703C877.858 47.7437 879.058 46.624 879.938 45.2109L877.617 43.8506C877.057 44.8639 876.218 45.6911 875.098 46.3311C874.004 46.9443 872.698 47.2509 871.178 47.251C869.044 47.251 867.244 46.6636 865.777 45.4902C864.337 44.2903 863.484 42.6769 863.218 40.6504H880.777C880.831 40.1171 880.857 39.7035 880.857 39.4102C880.857 36.5571 879.937 34.0906 878.098 32.0107C876.284 29.9041 873.897 28.8506 870.938 28.8506ZM894.177 28.8506C891.323 28.8506 888.883 29.864 886.856 31.8906C884.857 33.9173 883.856 36.3978 883.856 39.3311C883.857 42.2641 884.857 44.744 886.856 46.7705C888.883 48.7972 891.323 49.8105 894.177 49.8105C897.723 49.8105 900.417 48.3435 902.257 45.4102V49.3311H904.896V29.3311H902.257V33.251C900.417 30.3176 897.723 28.8506 894.177 28.8506ZM944.807 28.8506C941.793 28.8506 939.286 29.864 937.286 31.8906C935.286 33.8906 934.286 36.3712 934.286 39.3311C934.286 42.2907 935.286 44.784 937.286 46.8105C939.286 48.8105 941.793 49.8105 944.807 49.8105C946.753 49.8105 948.527 49.3435 950.127 48.4102C951.727 47.4769 952.94 46.2102 953.767 44.6104L951.566 43.3311C950.9 44.5309 949.98 45.491 948.807 46.2109C947.633 46.9042 946.3 47.251 944.807 47.251C942.593 47.251 940.726 46.4907 939.206 44.9707C937.686 43.4242 936.927 41.5441 936.927 39.3311C936.927 37.1178 937.686 35.2504 939.206 33.7305C940.726 32.1838 942.593 31.4102 944.807 31.4102C946.3 31.4102 947.633 31.7703 948.807 32.4902C950.007 33.1836 950.873 34.1311 951.406 35.3311L953.566 34.0908C952.846 32.491 951.7 31.2243 950.127 30.291C948.554 29.331 946.78 28.8506 944.807 28.8506ZM966.682 28.8506C963.748 28.8506 961.255 29.864 959.201 31.8906C957.175 33.8906 956.161 36.3711 956.161 39.3311C956.161 42.2908 957.175 44.784 959.201 46.8105C961.255 48.8105 963.748 49.8105 966.682 49.8105C969.615 49.8105 972.094 48.8104 974.121 46.8105C976.174 44.784 977.201 42.2909 977.201 39.3311C977.201 36.3711 976.174 33.8906 974.121 31.8906C972.094 29.8641 969.615 28.8506 966.682 28.8506ZM990.939 28.8506C988.006 28.8506 985.512 29.864 983.459 31.8906C981.432 33.8906 980.419 36.3711 980.419 39.3311C980.419 42.2908 981.433 44.784 983.459 46.8105C985.512 48.8105 988.006 49.8105 990.939 49.8105C993.873 49.8105 996.352 48.8104 998.379 46.8105C1000.43 44.784 1001.46 42.2909 1001.46 39.3311C1001.46 36.3711 1000.43 33.8906 998.379 31.8906C996.352 29.8641 993.873 28.8506 990.939 28.8506ZM1078.21 28.8506C1075.19 28.8506 1072.68 29.864 1070.68 31.8906C1068.68 33.8906 1067.68 36.3712 1067.68 39.3311C1067.68 42.2907 1068.68 44.784 1070.68 46.8105C1072.68 48.8105 1075.19 49.8105 1078.21 49.8105C1080.15 49.8105 1081.93 49.3435 1083.53 48.4102C1085.13 47.4769 1086.34 46.2102 1087.17 44.6104L1084.96 43.3311C1084.3 44.5309 1083.38 45.491 1082.21 46.2109C1081.03 46.9042 1079.7 47.251 1078.21 47.251C1075.99 47.251 1074.12 46.4907 1072.6 44.9707C1071.08 43.4242 1070.33 41.5441 1070.33 39.3311C1070.33 37.1178 1071.08 35.2504 1072.6 33.7305C1074.12 32.1838 1075.99 31.4102 1078.21 31.4102C1079.7 31.4102 1081.03 31.7703 1082.21 32.4902C1083.41 33.1836 1084.27 34.1311 1084.8 35.3311L1086.96 34.0908C1086.24 32.491 1085.1 31.2243 1083.53 30.291C1081.95 29.331 1080.18 28.8506 1078.21 28.8506ZM1100.08 28.8506C1097.15 28.8506 1094.65 29.864 1092.6 31.8906C1090.57 33.8906 1089.56 36.3711 1089.56 39.3311C1089.56 42.2908 1090.57 44.784 1092.6 46.8105C1094.65 48.8105 1097.15 49.8105 1100.08 49.8105C1103.01 49.8105 1105.49 48.8104 1107.52 46.8105C1109.57 44.784 1110.6 42.2909 1110.6 39.3311C1110.6 36.3711 1109.57 33.8906 1107.52 31.8906C1105.49 29.8641 1103.01 28.8506 1100.08 28.8506ZM1124.34 28.8506C1121.4 28.8506 1118.91 29.864 1116.86 31.8906C1114.83 33.8906 1113.82 36.3711 1113.82 39.3311C1113.82 42.2908 1114.83 44.784 1116.86 46.8105C1118.91 48.8105 1121.4 49.8105 1124.34 49.8105C1127.27 49.8105 1129.75 48.8104 1131.78 46.8105C1133.83 44.784 1134.86 42.2909 1134.86 39.3311C1134.86 36.3711 1133.83 33.8906 1131.78 31.8906C1129.75 29.8641 1127.27 28.8506 1124.34 28.8506ZM1178.28 28.8506C1175.21 28.8506 1172.71 29.8506 1170.76 31.8506C1168.81 33.8505 1167.84 36.3445 1167.84 39.3311C1167.84 42.3707 1168.83 44.8774 1170.8 46.8506C1172.77 48.8239 1175.33 49.8105 1178.48 49.8105C1180.43 49.8105 1182.16 49.3969 1183.68 48.5703C1185.2 47.7437 1186.4 46.624 1187.28 45.2109L1184.96 43.8506C1184.4 44.8639 1183.56 45.6911 1182.44 46.3311C1181.35 46.9443 1180.04 47.2509 1178.52 47.251C1176.39 47.251 1174.59 46.6636 1173.12 45.4902C1171.68 44.2903 1170.83 42.6769 1170.56 40.6504H1188.12C1188.17 40.1171 1188.2 39.7035 1188.2 39.4102C1188.2 36.5571 1187.28 34.0906 1185.44 32.0107C1183.63 29.9041 1181.24 28.8506 1178.28 28.8506ZM1201.52 28.8506C1198.67 28.8506 1196.23 29.864 1194.2 31.8906C1192.2 33.9173 1191.2 36.3978 1191.2 39.3311C1191.2 42.2641 1192.2 44.744 1194.2 46.7705C1196.23 48.7972 1198.67 49.8105 1201.52 49.8105C1205.07 49.8105 1207.76 48.3435 1209.6 45.4102V49.3311H1212.24V29.3311H1209.6V33.251C1207.76 30.3176 1205.07 28.8506 1201.52 28.8506ZM1252.15 28.8506C1249.14 28.8506 1246.63 29.864 1244.63 31.8906C1242.63 33.8906 1241.63 36.3712 1241.63 39.3311C1241.63 42.2907 1242.63 44.784 1244.63 46.8105C1246.63 48.8105 1249.14 49.8105 1252.15 49.8105C1254.1 49.8105 1255.87 49.3435 1257.47 48.4102C1259.07 47.4769 1260.28 46.2102 1261.11 44.6104L1258.91 43.3311C1258.24 44.5309 1257.32 45.491 1256.15 46.2109C1254.98 46.9042 1253.64 47.251 1252.15 47.251C1249.94 47.251 1248.07 46.4907 1246.55 44.9707C1245.03 43.4242 1244.27 41.5441 1244.27 39.3311C1244.27 37.1178 1245.03 35.2504 1246.55 33.7305C1248.07 32.1838 1249.94 31.4102 1252.15 31.4102C1253.64 31.4102 1254.98 31.7703 1256.15 32.4902C1257.35 33.1836 1258.22 34.1311 1258.75 35.3311L1260.91 34.0908C1260.19 32.491 1259.04 31.2243 1257.47 30.291C1255.9 29.331 1254.12 28.8506 1252.15 28.8506ZM1274.03 28.8506C1271.09 28.8506 1268.6 29.864 1266.54 31.8906C1264.52 33.8906 1263.5 36.3711 1263.5 39.3311C1263.5 42.2908 1264.52 44.784 1266.54 46.8105C1268.6 48.8105 1271.09 49.8105 1274.03 49.8105C1276.96 49.8105 1279.44 48.8104 1281.46 46.8105C1283.52 44.784 1284.54 42.2909 1284.54 39.3311C1284.54 36.3711 1283.52 33.8906 1281.46 31.8906C1279.44 29.8641 1276.96 28.8506 1274.03 28.8506ZM1298.28 28.8506C1295.35 28.8506 1292.86 29.864 1290.8 31.8906C1288.78 33.8906 1287.76 36.3711 1287.76 39.3311C1287.76 42.2908 1288.78 44.784 1290.8 46.8105C1292.86 48.8105 1295.35 49.8105 1298.28 49.8105C1301.22 49.8105 1303.7 48.8104 1305.72 46.8105C1307.78 44.784 1308.8 42.2909 1308.8 39.3311C1308.8 36.3711 1307.78 33.8906 1305.72 31.8906C1303.7 29.8641 1301.22 28.8506 1298.28 28.8506ZM1385.55 28.8506C1382.54 28.8506 1380.03 29.864 1378.03 31.8906C1376.03 33.8906 1375.03 36.3712 1375.03 39.3311C1375.03 42.2907 1376.03 44.784 1378.03 46.8105C1380.03 48.8105 1382.54 49.8105 1385.55 49.8105C1387.5 49.8105 1389.27 49.3435 1390.87 48.4102C1392.47 47.4769 1393.68 46.2102 1394.51 44.6104L1392.31 43.3311C1391.64 44.5309 1390.72 45.491 1389.55 46.2109C1388.38 46.9042 1387.04 47.251 1385.55 47.251C1383.34 47.251 1381.47 46.4907 1379.95 44.9707C1378.43 43.4242 1377.67 41.5441 1377.67 39.3311C1377.67 37.1178 1378.43 35.2504 1379.95 33.7305C1381.47 32.1838 1383.34 31.4102 1385.55 31.4102C1387.04 31.4102 1388.38 31.7703 1389.55 32.4902C1390.75 33.1836 1391.62 34.1311 1392.15 35.3311L1394.31 34.0908C1393.59 32.491 1392.44 31.2243 1390.87 30.291C1389.3 29.331 1387.52 28.8506 1385.55 28.8506ZM1407.42 28.8506C1404.49 28.8506 1402 29.864 1399.94 31.8906C1397.92 33.8906 1396.9 36.3711 1396.9 39.3311C1396.9 42.2908 1397.92 44.784 1399.94 46.8105C1402 48.8105 1404.49 49.8105 1407.42 49.8105C1410.36 49.8105 1412.84 48.8104 1414.86 46.8105C1416.92 44.784 1417.94 42.2909 1417.94 39.3311C1417.94 36.3711 1416.92 33.8906 1414.86 31.8906C1412.84 29.8641 1410.36 28.8506 1407.42 28.8506ZM1431.68 28.8506C1428.75 28.8506 1426.25 29.864 1424.2 31.8906C1422.17 33.8906 1421.16 36.3711 1421.16 39.3311C1421.16 42.2908 1422.17 44.784 1424.2 46.8105C1426.25 48.8105 1428.75 49.8105 1431.68 49.8105C1434.61 49.8105 1437.09 48.8104 1439.12 46.8105C1441.17 44.784 1442.2 42.2909 1442.2 39.3311C1442.2 36.3711 1441.17 33.8906 1439.12 31.8906C1437.09 29.8641 1434.61 28.8506 1431.68 28.8506ZM124.054 24.5303V29.3311H119.854V31.8906H124.054V44.0107C124.054 46.3307 124.747 47.9038 126.134 48.7305C127.547 49.5571 129.654 49.7577 132.454 49.3311V47.0107C131.174 47.0641 130.107 47.0908 129.254 47.0908C128.401 47.0642 127.761 46.8235 127.334 46.3701C126.907 45.8901 126.693 45.1039 126.693 44.0107V31.8906H132.454V29.3311H126.693V23.7305L124.054 24.5303ZM297.999 24.5303V29.3311H293.799V31.8906H297.999V44.0107C297.999 46.3307 298.692 47.9038 300.079 48.7305C301.492 49.5571 303.599 49.7577 306.399 49.3311V47.0107C305.12 47.0641 304.053 47.0908 303.199 47.0908C302.346 47.0642 301.706 46.8235 301.279 46.3701C300.853 45.8901 300.639 45.1039 300.639 44.0107V31.8906H306.399V29.3311H300.639V23.7305L297.999 24.5303ZM431.397 24.5303V29.3311H427.197V31.8906H431.397V44.0107C431.397 46.3307 432.091 47.9038 433.478 48.7305C434.891 49.5571 436.998 49.7577 439.798 49.3311V47.0107C438.518 47.0641 437.451 47.0908 436.598 47.0908C435.744 47.0642 435.104 46.8235 434.678 46.3701C434.251 45.8901 434.037 45.1039 434.037 44.0107V31.8906H439.798V29.3311H434.037V23.7305L431.397 24.5303ZM605.343 24.5303V29.3311H601.143V31.8906H605.343V44.0107C605.343 46.3307 606.036 47.9038 607.423 48.7305C608.836 49.5571 610.943 49.7577 613.743 49.3311V47.0107C612.463 47.0641 611.396 47.0908 610.543 47.0908C609.69 47.0642 609.05 46.8235 608.623 46.3701C608.196 45.8901 607.982 45.1039 607.982 44.0107V31.8906H613.743V29.3311H607.982V23.7305L605.343 24.5303ZM738.741 24.5303V29.3311H734.541V31.8906H738.741V44.0107C738.741 46.3307 739.435 47.9038 740.821 48.7305C742.235 49.5571 744.342 49.7577 747.142 49.3311V47.0107C745.862 47.0641 744.795 47.0908 743.941 47.0908C743.088 47.0642 742.448 46.8235 742.021 46.3701C741.595 45.8901 741.381 45.1039 741.381 44.0107V31.8906H747.142V29.3311H741.381V23.7305L738.741 24.5303ZM912.687 24.5303V29.3311H908.486V31.8906H912.687V44.0107C912.687 46.3307 913.38 47.9038 914.767 48.7305C916.18 49.5571 918.287 49.7577 921.087 49.3311V47.0107C919.807 47.0641 918.74 47.0908 917.887 47.0908C917.033 47.0642 916.393 46.8235 915.967 46.3701C915.54 45.8901 915.326 45.1039 915.326 44.0107V31.8906H921.087V29.3311H915.326V23.7305L912.687 24.5303ZM1046.08 24.5303V29.3311H1041.88V31.8906H1046.08V44.0107C1046.08 46.3307 1046.78 47.9038 1048.17 48.7305C1049.58 49.5571 1051.69 49.7577 1054.49 49.3311V47.0107C1053.21 47.0641 1052.14 47.0908 1051.29 47.0908C1050.43 47.0642 1049.79 46.8235 1049.37 46.3701C1048.94 45.8901 1048.72 45.1039 1048.72 44.0107V31.8906H1054.49V29.3311H1048.72V23.7305L1046.08 24.5303ZM1220.03 24.5303V29.3311H1215.83V31.8906H1220.03V44.0107C1220.03 46.3307 1220.72 47.9038 1222.11 48.7305C1223.52 49.5571 1225.63 49.7577 1228.43 49.3311V47.0107C1227.15 47.0641 1226.08 47.0908 1225.23 47.0908C1224.38 47.0642 1223.74 46.8235 1223.31 46.3701C1222.88 45.8901 1222.67 45.1039 1222.67 44.0107V31.8906H1228.43V29.3311H1222.67V23.7305L1220.03 24.5303ZM1353.43 24.5303V29.3311H1349.23V31.8906H1353.43V44.0107C1353.43 46.3307 1354.12 47.9038 1355.51 48.7305C1356.92 49.5571 1359.03 49.7577 1361.83 49.3311V47.0107C1360.55 47.0641 1359.48 47.0908 1358.63 47.0908C1357.78 47.0642 1357.14 46.8235 1356.71 46.3701C1356.28 45.8901 1356.07 45.1039 1356.07 44.0107V31.8906H1361.83V29.3311H1356.07V23.7305L1353.43 24.5303ZM83.8457 21.3311V49.3311H86.4863V39.6904L96.4863 49.3311H100.006L89.2861 38.9307L99.6055 29.3311H96.0059L86.4863 38.1709V21.3311H83.8457ZM113.611 29.3311V49.3311H116.252V29.3311H113.611ZM217.244 21.3311V49.3311H219.885V39.6904L229.885 49.3311H233.404L222.685 38.9307L233.004 29.3311H229.404L219.885 38.1709V21.3311H217.244ZM391.189 21.3311V49.3311H393.83V39.6904L403.83 49.3311H407.35L396.63 38.9307L406.949 29.3311H403.35L393.83 38.1709V21.3311H391.189ZM420.955 29.3311V49.3311H423.596V29.3311H420.955ZM524.588 21.3311V49.3311H527.229V39.6904L537.229 49.3311H540.748L530.028 38.9307L540.348 29.3311H536.748L527.229 38.1709V21.3311H524.588ZM698.533 21.3311V49.3311H701.174V39.6904L711.174 49.3311H714.693L703.974 38.9307L714.293 29.3311H710.693L701.174 38.1709V21.3311H698.533ZM728.299 29.3311V49.3311H730.939V29.3311H728.299ZM831.932 21.3311V49.3311H834.572V39.6904L844.572 49.3311H848.092L837.372 38.9307L847.691 29.3311H844.092L834.572 38.1709V21.3311H831.932ZM1005.88 21.3311V49.3311H1008.52V39.6904L1018.52 49.3311H1022.04L1011.32 38.9307L1021.64 29.3311H1018.04L1008.52 38.1709V21.3311H1005.88ZM1035.64 29.3311V49.3311H1038.28V29.3311H1035.64ZM1139.28 21.3311V49.3311H1141.92V39.6904L1151.92 49.3311H1155.44L1144.72 38.9307L1155.04 29.3311H1151.44L1141.92 38.1709V21.3311H1139.28ZM1313.22 21.3311V49.3311H1315.86V39.6904L1325.86 49.3311H1329.38L1318.66 38.9307L1328.98 29.3311H1325.38L1315.86 38.1709V21.3311H1313.22ZM1342.99 29.3311V49.3311H1345.63V29.3311H1342.99ZM1446.62 21.3311V49.3311H1449.26V39.6904L1459.26 49.3311H1462.78L1452.06 38.9307L1462.38 29.3311H1458.78L1449.26 38.1709V21.3311H1446.62ZM44.6504 31.4102C46.8636 31.4102 48.7301 32.184 50.25 33.7305C51.77 35.2505 52.5303 37.1177 52.5303 39.3311C52.5302 41.5442 51.7699 43.4241 50.25 44.9707C48.7301 46.4905 46.8636 47.2509 44.6504 47.251C42.4371 47.251 40.5698 46.4907 39.0498 44.9707C37.53 43.4242 36.7706 41.5441 36.7705 39.3311C36.7705 37.1178 37.5299 35.2504 39.0498 33.7305C40.5698 32.1838 42.4371 31.4102 44.6504 31.4102ZM68.9082 31.4102C71.1214 31.4102 72.9879 32.184 74.5078 33.7305C76.0278 35.2505 76.7881 37.1177 76.7881 39.3311C76.788 41.5442 76.0277 43.4241 74.5078 44.9707C72.9879 46.4905 71.1214 47.2509 68.9082 47.251C66.6949 47.251 64.8276 46.4907 63.3076 44.9707C61.7878 43.4242 61.0284 41.5441 61.0283 39.3311C61.0283 37.1178 61.7877 35.2504 63.3076 33.7305C64.8276 32.1838 66.6949 31.4102 68.9082 31.4102ZM178.049 31.4102C180.262 31.4102 182.128 32.184 183.648 33.7305C185.168 35.2505 185.929 37.1177 185.929 39.3311C185.929 41.5442 185.168 43.4241 183.648 44.9707C182.128 46.4905 180.262 47.2509 178.049 47.251C175.835 47.251 173.968 46.4907 172.448 44.9707C170.928 43.4242 170.169 41.5441 170.169 39.3311C170.169 37.1178 170.928 35.2504 172.448 33.7305C173.968 32.1838 175.835 31.4102 178.049 31.4102ZM202.307 31.4102C204.52 31.4102 206.386 32.184 207.906 33.7305C209.426 35.2505 210.187 37.1177 210.187 39.3311C210.186 41.5442 209.426 43.4241 207.906 44.9707C206.386 46.4905 204.52 47.2509 202.307 47.251C200.093 47.251 198.226 46.4907 196.706 44.9707C195.186 43.4242 194.427 41.5441 194.427 39.3311C194.427 37.1178 195.186 35.2504 196.706 33.7305C198.226 32.1838 200.093 31.4102 202.307 31.4102ZM279.689 31.4102C281.903 31.4102 283.769 32.184 285.289 33.7305C286.809 35.2505 287.569 37.1177 287.569 39.3311C287.569 41.5442 286.809 43.4241 285.289 44.9707C283.769 46.4905 281.903 47.2509 279.689 47.251C277.476 47.251 275.609 46.4907 274.089 44.9707C272.569 43.4242 271.81 41.5441 271.81 39.3311C271.81 37.1178 272.569 35.2504 274.089 33.7305C275.609 32.1838 277.476 31.4102 279.689 31.4102ZM351.994 31.4102C354.207 31.4102 356.074 32.184 357.594 33.7305C359.114 35.2505 359.874 37.1177 359.874 39.3311C359.874 41.5442 359.114 43.4241 357.594 44.9707C356.074 46.4905 354.207 47.2509 351.994 47.251C349.781 47.251 347.914 46.4907 346.394 44.9707C344.874 43.4242 344.114 41.5441 344.114 39.3311C344.114 37.1178 344.874 35.2504 346.394 33.7305C347.914 32.1838 349.781 31.4102 351.994 31.4102ZM376.252 31.4102C378.465 31.4102 380.332 32.184 381.852 33.7305C383.372 35.2505 384.132 37.1177 384.132 39.3311C384.132 41.5442 383.371 43.4241 381.852 44.9707C380.332 46.4905 378.465 47.2509 376.252 47.251C374.039 47.251 372.171 46.4907 370.651 44.9707C369.132 43.4242 368.372 41.5441 368.372 39.3311C368.372 37.1178 369.131 35.2504 370.651 33.7305C372.171 32.1838 374.039 31.4102 376.252 31.4102ZM485.393 31.4102C487.606 31.4102 489.472 32.184 490.992 33.7305C492.512 35.2505 493.272 37.1177 493.272 39.3311C493.272 41.5442 492.512 43.4241 490.992 44.9707C489.472 46.4905 487.606 47.2509 485.393 47.251C483.179 47.251 481.312 46.4907 479.792 44.9707C478.272 43.4242 477.513 41.5441 477.513 39.3311C477.513 37.1178 478.272 35.2504 479.792 33.7305C481.312 32.1838 483.179 31.4102 485.393 31.4102ZM509.65 31.4102C511.864 31.4102 513.73 32.184 515.25 33.7305C516.77 35.2505 517.53 37.1177 517.53 39.3311C517.53 41.5442 516.77 43.4241 515.25 44.9707C513.73 46.4905 511.864 47.2509 509.65 47.251C507.437 47.251 505.57 46.4907 504.05 44.9707C502.53 43.4242 501.771 41.5441 501.771 39.3311C501.771 37.1178 502.53 35.2504 504.05 33.7305C505.57 32.1838 507.437 31.4102 509.65 31.4102ZM587.033 31.4102C589.246 31.4102 591.113 32.184 592.633 33.7305C594.153 35.2505 594.913 37.1177 594.913 39.3311C594.913 41.5442 594.153 43.4241 592.633 44.9707C591.113 46.4905 589.246 47.2509 587.033 47.251C584.82 47.251 582.953 46.4907 581.433 44.9707C579.913 43.4242 579.153 41.5441 579.153 39.3311C579.153 37.1178 579.913 35.2504 581.433 33.7305C582.953 32.1838 584.82 31.4102 587.033 31.4102ZM659.338 31.4102C661.551 31.4102 663.418 32.184 664.938 33.7305C666.457 35.2505 667.218 37.1177 667.218 39.3311C667.218 41.5442 666.457 43.4241 664.938 44.9707C663.418 46.4905 661.551 47.2509 659.338 47.251C657.125 47.251 655.257 46.4907 653.737 44.9707C652.218 43.4242 651.458 41.5441 651.458 39.3311C651.458 37.1178 652.217 35.2504 653.737 33.7305C655.257 32.1838 657.125 31.4102 659.338 31.4102ZM683.596 31.4102C685.809 31.4102 687.675 32.184 689.195 33.7305C690.715 35.2505 691.476 37.1177 691.476 39.3311C691.475 41.5442 690.715 43.4241 689.195 44.9707C687.675 46.4905 685.809 47.2509 683.596 47.251C681.382 47.251 679.515 46.4907 677.995 44.9707C676.475 43.4242 675.716 41.5441 675.716 39.3311C675.716 37.1178 676.475 35.2504 677.995 33.7305C679.515 32.1838 681.382 31.4102 683.596 31.4102ZM792.736 31.4102C794.95 31.4102 796.816 32.184 798.336 33.7305C799.856 35.2505 800.616 37.1177 800.616 39.3311C800.616 41.5442 799.856 43.4241 798.336 44.9707C796.816 46.4905 794.95 47.2509 792.736 47.251C790.523 47.251 788.656 46.4907 787.136 44.9707C785.616 43.4242 784.857 41.5441 784.856 39.3311C784.856 37.1178 785.616 35.2504 787.136 33.7305C788.656 32.1838 790.523 31.4102 792.736 31.4102ZM816.994 31.4102C819.207 31.4102 821.074 32.184 822.594 33.7305C824.114 35.2505 824.874 37.1177 824.874 39.3311C824.874 41.5442 824.114 43.4241 822.594 44.9707C821.074 46.4905 819.207 47.2509 816.994 47.251C814.781 47.251 812.914 46.4907 811.394 44.9707C809.874 43.4242 809.114 41.5441 809.114 39.3311C809.114 37.1178 809.874 35.2504 811.394 33.7305C812.914 32.1838 814.781 31.4102 816.994 31.4102ZM894.377 31.4102C896.59 31.4102 898.457 32.184 899.977 33.7305C901.497 35.2505 902.257 37.1177 902.257 39.3311C902.257 41.5442 901.496 43.4241 899.977 44.9707C898.457 46.4905 896.59 47.2509 894.377 47.251C892.164 47.251 890.296 46.4907 888.776 44.9707C887.257 43.4242 886.497 41.5441 886.497 39.3311C886.497 37.1178 887.256 35.2504 888.776 33.7305C890.296 32.1838 892.164 31.4102 894.377 31.4102ZM966.682 31.4102C968.895 31.4102 970.761 32.184 972.281 33.7305C973.801 35.2505 974.562 37.1177 974.562 39.3311C974.561 41.5442 973.801 43.4241 972.281 44.9707C970.761 46.4905 968.895 47.2509 966.682 47.251C964.468 47.251 962.601 46.4907 961.081 44.9707C959.561 43.4242 958.802 41.5441 958.802 39.3311C958.802 37.1178 959.561 35.2504 961.081 33.7305C962.601 32.1838 964.468 31.4102 966.682 31.4102ZM990.939 31.4102C993.153 31.4102 995.019 32.184 996.539 33.7305C998.059 35.2505 998.819 37.1177 998.819 39.3311C998.819 41.5442 998.059 43.4241 996.539 44.9707C995.019 46.4905 993.153 47.2509 990.939 47.251C988.726 47.251 986.859 46.4907 985.339 44.9707C983.819 43.4242 983.06 41.5441 983.06 39.3311C983.06 37.1178 983.819 35.2504 985.339 33.7305C986.859 32.1838 988.726 31.4102 990.939 31.4102ZM1100.08 31.4102C1102.29 31.4102 1104.16 32.184 1105.68 33.7305C1107.2 35.2505 1107.96 37.1177 1107.96 39.3311C1107.96 41.5442 1107.2 43.4241 1105.68 44.9707C1104.16 46.4905 1102.29 47.2509 1100.08 47.251C1097.87 47.251 1096 46.4907 1094.48 44.9707C1092.96 43.4242 1092.2 41.5441 1092.2 39.3311C1092.2 37.1178 1092.96 35.2504 1094.48 33.7305C1096 32.1838 1097.87 31.4102 1100.08 31.4102ZM1124.34 31.4102C1126.55 31.4102 1128.42 32.184 1129.94 33.7305C1131.46 35.2505 1132.22 37.1177 1132.22 39.3311C1132.22 41.5442 1131.46 43.4241 1129.94 44.9707C1128.42 46.4905 1126.55 47.2509 1124.34 47.251C1122.12 47.251 1120.26 46.4907 1118.74 44.9707C1117.22 43.4242 1116.46 41.5441 1116.46 39.3311C1116.46 37.1178 1117.22 35.2504 1118.74 33.7305C1120.26 32.1838 1122.12 31.4102 1124.34 31.4102ZM1201.72 31.4102C1203.93 31.4102 1205.8 32.184 1207.32 33.7305C1208.84 35.2505 1209.6 37.1177 1209.6 39.3311C1209.6 41.5442 1208.84 43.4241 1207.32 44.9707C1205.8 46.4905 1203.93 47.2509 1201.72 47.251C1199.51 47.251 1197.64 46.4907 1196.12 44.9707C1194.6 43.4242 1193.84 41.5441 1193.84 39.3311C1193.84 37.1178 1194.6 35.2504 1196.12 33.7305C1197.64 32.1838 1199.51 31.4102 1201.72 31.4102ZM1274.03 31.4102C1276.24 31.4102 1278.11 32.184 1279.62 33.7305C1281.14 35.2505 1281.91 37.1177 1281.91 39.3311C1281.91 41.5442 1281.14 43.4241 1279.62 44.9707C1278.11 46.4905 1276.24 47.2509 1274.03 47.251C1271.81 47.251 1269.94 46.4907 1268.42 44.9707C1266.91 43.4242 1266.15 41.5441 1266.15 39.3311C1266.15 37.1178 1266.9 35.2504 1268.42 33.7305C1269.94 32.1838 1271.81 31.4102 1274.03 31.4102ZM1298.28 31.4102C1300.5 31.4102 1302.36 32.184 1303.88 33.7305C1305.4 35.2505 1306.16 37.1177 1306.16 39.3311C1306.16 41.5442 1305.4 43.4241 1303.88 44.9707C1302.36 46.4905 1300.5 47.2509 1298.28 47.251C1296.07 47.251 1294.2 46.4907 1292.68 44.9707C1291.16 43.4242 1290.4 41.5441 1290.4 39.3311C1290.4 37.1178 1291.16 35.2504 1292.68 33.7305C1294.2 32.1838 1296.07 31.4102 1298.28 31.4102ZM1407.42 31.4102C1409.64 31.4102 1411.5 32.184 1413.02 33.7305C1414.54 35.2505 1415.3 37.1177 1415.3 39.3311C1415.3 41.5442 1414.54 43.4241 1413.02 44.9707C1411.5 46.4905 1409.64 47.2509 1407.42 47.251C1405.21 47.251 1403.34 46.4907 1401.82 44.9707C1400.3 43.4242 1399.54 41.5441 1399.54 39.3311C1399.54 37.1178 1400.3 35.2504 1401.82 33.7305C1403.34 32.1838 1405.21 31.4102 1407.42 31.4102ZM1431.68 31.4102C1433.89 31.4102 1435.76 32.184 1437.28 33.7305C1438.8 35.2505 1439.56 37.1177 1439.56 39.3311C1439.56 41.5442 1438.8 43.4241 1437.28 44.9707C1435.76 46.4905 1433.89 47.2509 1431.68 47.251C1429.47 47.251 1427.6 46.4907 1426.08 44.9707C1424.56 43.4242 1423.8 41.5441 1423.8 39.3311C1423.8 37.1178 1424.56 35.2504 1426.08 33.7305C1427.6 32.1838 1429.47 31.4102 1431.68 31.4102ZM1484.69 47.1865C1483.06 47.0065 1481.65 46.4415 1480.46 45.4902C1479.02 44.2903 1478.17 42.6769 1477.91 40.6504H1484.69V47.1865ZM256.25 31.4102C258.063 31.4102 259.65 31.9976 261.01 33.1709C262.37 34.3442 263.184 35.9842 263.45 38.0908H248.53C248.797 36.1176 249.623 34.5176 251.01 33.291C252.423 32.0377 254.17 31.4102 256.25 31.4102ZM563.594 31.4102C565.407 31.4102 566.994 31.9976 568.354 33.1709C569.713 34.3442 570.527 35.9842 570.794 38.0908H555.874C556.141 36.1176 556.967 34.5176 558.354 33.291C559.767 32.0377 561.514 31.4102 563.594 31.4102ZM870.938 31.4102C872.751 31.4102 874.337 31.9976 875.697 33.1709C877.057 34.3442 877.871 35.9842 878.138 38.0908H863.218C863.484 36.1176 864.311 34.5176 865.697 33.291C867.111 32.0377 868.857 31.4102 870.938 31.4102ZM1178.28 31.4102C1180.09 31.4102 1181.68 31.9976 1183.04 33.1709C1184.4 34.3442 1185.21 35.9842 1185.48 38.0908H1170.56C1170.83 36.1176 1171.65 34.5176 1173.04 33.291C1174.45 32.0377 1176.2 31.4102 1178.28 31.4102ZM1484.69 38.0908H1477.91C1478.17 36.1176 1479 34.5176 1480.38 33.291C1481.58 32.2304 1483.02 31.6201 1484.69 31.457V38.0908ZM114.932 21.251C114.398 21.251 113.945 21.4372 113.571 21.8105C113.198 22.1839 113.012 22.6376 113.012 23.1709C113.012 23.704 113.198 24.1571 113.571 24.5303C113.945 24.9036 114.398 25.0908 114.932 25.0908C115.465 25.0908 115.919 24.9036 116.292 24.5303C116.665 24.1571 116.851 23.7039 116.852 23.1709C116.852 22.6377 116.665 22.1838 116.292 21.8105C115.919 21.4372 115.465 21.251 114.932 21.251ZM422.275 21.251C421.742 21.251 421.288 21.4372 420.915 21.8105C420.542 22.1839 420.355 22.6376 420.355 23.1709C420.356 23.704 420.542 24.1571 420.915 24.5303C421.288 24.9036 421.742 25.0908 422.275 25.0908C422.809 25.0908 423.262 24.9036 423.636 24.5303C424.009 24.1571 424.195 23.7039 424.195 23.1709C424.195 22.6377 424.009 22.1838 423.636 21.8105C423.262 21.4372 422.809 21.251 422.275 21.251ZM729.619 21.251C729.086 21.251 728.632 21.4372 728.259 21.8105C727.886 22.1839 727.699 22.6376 727.699 23.1709C727.699 23.704 727.886 24.1571 728.259 24.5303C728.632 24.9036 729.086 25.0908 729.619 25.0908C730.152 25.0908 730.606 24.9036 730.979 24.5303C731.352 24.1571 731.539 23.7039 731.539 23.1709C731.539 22.6377 731.353 22.1838 730.979 21.8105C730.606 21.4372 730.152 21.251 729.619 21.251ZM1036.96 21.251C1036.43 21.251 1035.98 21.4372 1035.6 21.8105C1035.23 22.1839 1035.04 22.6376 1035.04 23.1709C1035.04 23.704 1035.23 24.1571 1035.6 24.5303C1035.98 24.9036 1036.43 25.0908 1036.96 25.0908C1037.5 25.0908 1037.95 24.9036 1038.32 24.5303C1038.7 24.1571 1038.88 23.7039 1038.88 23.1709C1038.88 22.6377 1038.7 22.1838 1038.32 21.8105C1037.95 21.4372 1037.5 21.251 1036.96 21.251ZM1344.31 21.251C1343.77 21.251 1343.32 21.4372 1342.95 21.8105C1342.57 22.1839 1342.39 22.6376 1342.39 23.1709C1342.39 23.704 1342.57 24.1571 1342.95 24.5303C1343.32 24.9036 1343.77 25.0908 1344.31 25.0908C1344.84 25.0908 1345.29 24.9036 1345.67 24.5303C1346.04 24.1571 1346.23 23.7039 1346.23 23.1709C1346.23 22.6377 1346.04 22.1838 1345.67 21.8105C1345.29 21.4372 1344.84 21.251 1344.31 21.251Z" fill="#EFECF4"/>
</svg>
