<svg width="137" height="119" viewBox="0 0 137 119" fill="none" xmlns="http://www.w3.org/2000/svg">
<path d="M24.5049 1.45137L51.1198 27.7458C48.9012 29.7253 46.7713 30.8448 44.1299 34.6861L15.2608 12.1513C17.0215 6.43471 19.1923 4.23903 24.5049 1.45137Z" fill="#A586E2"/>
<path d="M6.98876 28.8639L40.4208 41.1086C39.1809 44.2203 38.3769 46.0657 37.8386 50.2391L3.06942 42.45C2.27684 36.5211 3.32983 33.6186 6.98876 28.8639Z" fill="#A586E2"/>
<path d="M2.24556 57.5544L37.6124 57.903C37.6665 62.8652 38.5297 65.6835 39.0397 67.795L3.07819 71.6701C0.354975 66.3443 0.380438 63.2568 2.24556 57.5544Z" fill="#A586E2"/>
<path d="M81.6501 94.6339C71.5381 94.6339 63.1861 91.2739 56.5941 84.5539C50.0021 77.8339 46.7061 69.5459 46.7061 59.6899C46.7061 49.7699 50.0021 41.4819 56.5941 34.8259C63.1861 28.1059 71.5381 24.7459 81.6501 24.7459C87.7301 24.7459 93.3301 26.1859 98.4501 29.0659C103.634 31.8819 107.666 35.7219 110.546 40.5859L99.1221 47.2099C97.4581 44.2019 95.0901 41.8659 92.0181 40.2019C88.9461 38.4739 85.4901 37.6099 81.6501 37.6099C75.1221 37.6099 69.8421 39.6579 65.8101 43.7539C61.8421 47.8499 59.8581 53.1619 59.8581 59.6899C59.8581 66.1539 61.8421 71.4339 65.8101 75.5299C69.8421 79.6259 75.1221 81.6739 81.6501 81.6739C85.4901 81.6739 88.9461 80.8419 92.0181 79.1779C95.1541 77.4499 97.5221 75.1139 99.1221 72.1699L110.546 78.7939C107.666 83.6579 103.666 87.5299 98.5461 90.4099C93.4261 93.2259 87.7941 94.6339 81.6501 94.6339Z" fill="#1F1369"/>
<path d="M128.818 92.1379C127.218 93.7379 125.298 94.5379 123.058 94.5379C120.818 94.5379 118.898 93.7379 117.298 92.1379C115.698 90.5379 114.898 88.6179 114.898 86.3779C114.898 84.1379 115.698 82.2179 117.298 80.6179C118.898 79.0179 120.818 78.2179 123.058 78.2179C125.298 78.2179 127.218 79.0179 128.818 80.6179C130.418 82.2179 131.218 84.1379 131.218 86.3779C131.218 88.6179 130.418 90.5379 128.818 92.1379Z" fill="#A586E2"/>
</svg>
